<svg width="83" height="18" viewBox="0 0 83 18" fill="none" xmlns="http://www.w3.org/2000/svg">
<path d="M7.22809 0.20722C7.70665 -0.0690736 8.29625 -0.0690731 8.7748 0.20722L15.1114 3.86563L10.7298 6.43121C10.0515 5.75031 9.11298 5.32891 8.07599 5.32891C6.99753 5.32891 6.02552 5.78469 5.34208 6.51415L0.854949 3.88676L7.22809 0.20722Z" fill="#222222"/>
<path d="M4.48797 7.99595L0 5.36806V12.7139L4.47126 10.0958C4.37946 9.77117 4.33034 9.4286 4.33034 9.07456C4.33034 8.6996 4.38544 8.33752 4.48797 7.99595Z" fill="#222222"/>
<path d="M5.30188 11.5914L0.925458 14.154L7.22809 17.7928C7.70665 18.0691 8.29625 18.0691 8.7748 17.7928L15.0408 14.1751L10.7716 11.6753C10.0904 12.3812 9.13446 12.8202 8.07599 12.8202C6.9762 12.8202 5.98712 12.3462 5.30188 11.5914Z" fill="#222222"/>
<path d="M11.6476 10.2063L16.0026 12.7563C16.0028 12.7464 16.0029 12.7365 16.0029 12.7266V5.32551L11.6293 7.88643C11.7541 8.25976 11.8216 8.65927 11.8216 9.07456C11.8216 9.46902 11.7607 9.84924 11.6476 10.2063Z" fill="#222222"/>
<path d="M80.7094 9.31058C81.2605 9.12131 81.6904 8.81529 81.9892 8.40117C82.3173 7.94649 82.4843 7.36561 82.4843 6.67503C82.4843 5.73372 82.1765 4.96535 81.5846 4.43286C80.9934 3.901 80.1251 3.61003 79.0143 3.61003H74.1543H74.1043V3.66003V14.34V14.39H74.1543H75.8193H75.8693V14.34V9.93503H78.6243C79.1909 9.93503 79.6765 10.0249 80.0198 10.276C80.3597 10.5247 80.5693 10.9387 80.5693 11.61V13.26C80.5693 13.7337 80.6765 14.071 80.8141 14.3614L80.8277 14.39H80.8593H82.4343H82.505L82.4814 14.3234C82.3939 14.0753 82.3343 13.7063 82.3343 13.26V11.55C82.3343 10.9564 82.182 10.4537 81.8794 10.0644C81.6064 9.71314 81.214 9.45787 80.7094 9.31058ZM78.8343 4.97003C79.5078 4.97003 79.9767 5.15489 80.2776 5.46841C80.5789 5.78232 80.7193 6.23302 80.7193 6.78003C80.7193 7.32704 80.5789 7.77385 80.2778 8.08395C79.977 8.39377 79.5081 8.57503 78.8343 8.57503H75.8693V4.97003H78.8343Z" fill="#222222" stroke="#222222" stroke-width="0.1"/>
<path d="M72.5374 14.39H72.5874V14.34V12.975V12.925H72.5374H66.6924V9.59003H72.0574H72.1074V9.54003V8.25003V8.20003H72.0574H66.6924V5.07503H72.5374H72.5874V5.02503V3.66003V3.61003H72.5374H64.9774H64.9274V3.66003V14.34V14.39H64.9774H72.5374Z" fill="#222222" stroke="#222222" stroke-width="0.1"/>
<path d="M60.239 14.39H60.289V14.34V5.07503H63.569H63.619V5.02503V3.66003V3.61003H63.569H55.259H55.209V3.66003V5.02503V5.07503H55.259H58.524V14.34V14.39H58.574H60.239Z" fill="#222222" stroke="#222222" stroke-width="0.1"/>
<path d="M46.0573 10.9H46.0073V10.95C46.0073 12.1004 46.3559 13.0012 47.0768 13.6131C47.7963 14.2238 48.8786 14.54 50.3323 14.54C51.7863 14.54 52.868 14.2162 53.587 13.6307C54.3076 13.0439 54.6573 12.1997 54.6573 11.175C54.6573 10.3 54.3674 9.65117 53.8049 9.18465C53.245 8.72037 52.4205 8.44106 51.3596 8.29054C51.3595 8.29053 51.3594 8.29052 51.3593 8.29051L49.8748 8.06557L49.8742 8.06549C49.1261 7.96075 48.6694 7.80094 48.3995 7.57422C48.1337 7.35097 48.0423 7.0567 48.0423 6.66001C48.0423 6.1006 48.2149 5.64332 48.5766 5.32505C48.9393 5.00589 49.4994 4.82001 50.2873 4.82001C51.0906 4.82001 51.6579 4.99855 52.0447 5.34357C52.4314 5.68858 52.6459 6.20737 52.7277 6.90582L52.7328 6.95001H52.7773H54.3373H54.3873V6.90001C54.3873 5.84675 54.0573 4.98417 53.3804 4.38568C52.7045 3.78801 51.6897 3.46001 50.3323 3.46001C48.9746 3.46001 47.9603 3.79565 47.2847 4.37776C46.6081 4.96067 46.2773 5.78549 46.2773 6.75001C46.2773 7.56839 46.4784 8.18774 46.9664 8.64102C47.452 9.0921 48.2144 9.37151 49.3201 9.52948C49.3201 9.52949 49.3202 9.5295 49.3202 9.52951L50.8048 9.75445L50.8053 9.75452C51.6498 9.87409 52.1711 10.0712 52.481 10.3285C52.7874 10.5829 52.8923 10.9008 52.8923 11.28C52.8923 11.8614 52.7089 12.333 52.307 12.6606C51.9032 12.9898 51.2715 13.18 50.3623 13.18C49.4376 13.18 48.8186 12.9971 48.41 12.6321C48.0016 12.2673 47.794 11.712 47.712 10.9447L47.7073 10.9H47.6623H46.0573Z" fill="#222222" stroke="#222222" stroke-width="0.1"/>
<path d="M34.428 9.00001C34.428 10.6365 34.8843 12.0221 35.7704 12.9992C36.657 13.977 37.9689 14.54 39.668 14.54C41.3671 14.54 42.679 13.977 43.5657 12.9992C44.4517 12.0221 44.908 10.6365 44.908 9.00001C44.908 7.36357 44.4517 5.97791 43.5657 5.0008C42.679 4.02299 41.3671 3.46001 39.668 3.46001C37.9689 3.46001 36.657 4.02299 35.7704 5.0008C34.8843 5.97791 34.428 7.36357 34.428 9.00001ZM43.143 9.00001C43.143 10.3134 42.8444 11.3313 42.2642 12.0203C41.6851 12.7078 40.8193 13.075 39.668 13.075C38.5167 13.075 37.651 12.7078 37.0719 12.0203C36.4916 11.3313 36.193 10.3134 36.193 9.00001C36.193 7.68667 36.4916 6.66869 37.0719 5.97972C37.651 5.29219 38.5167 4.92501 39.668 4.92501C40.8193 4.92501 41.6851 5.29219 42.2642 5.97972C42.8444 6.66869 43.143 7.68667 43.143 9.00001Z" fill="#222222" stroke="#222222" stroke-width="0.1"/>
<path d="M26.6679 14.39H26.7179V14.34V10.385H29.5629C30.7108 10.385 31.6539 10.0943 32.3107 9.5234C32.9686 8.95158 33.3329 8.1042 33.3329 7.00503C33.3329 5.90588 32.9686 5.05483 32.3109 4.47928C31.6541 3.90458 30.7109 3.61003 29.5629 3.61003H25.0029H24.9529V3.66003V14.34V14.39H25.0029H26.6679ZM29.3379 4.97003C30.0736 4.97003 30.6295 5.14102 31.0013 5.47653C31.3722 5.8112 31.5679 6.31703 31.5679 7.00503C31.5679 7.69303 31.3722 8.19497 31.0015 8.52586C30.6298 8.85768 30.0738 9.02503 29.3379 9.02503H26.7179V4.97003H29.3379Z" fill="#222222" stroke="#222222" stroke-width="0.1"/>
</svg>
